<svg width="81" height="19" viewBox="0 0 81 19" fill="none" xmlns="http://www.w3.org/2000/svg">
    <path d="M14.425 5.525C17.125 5.525 18.475 7.13333 18.475 10.35V17.125C18.475 17.4417 18.3833 17.6917 18.2 17.875C18.0167 18.0417 17.775 18.125 17.475 18.125C17.175 18.125 16.925 18.0417 16.725 17.875C16.5417 17.6917 16.45 17.4417 16.45 17.125V10.4C16.45 9.28333 16.25 8.475 15.85 7.975C15.45 7.475 14.825 7.225 13.975 7.225C12.9583 7.225 12.1583 7.56667 11.575 8.25C10.9917 8.93333 10.7 9.85833 10.7 11.025V17.125C10.7 17.4417 10.6 17.6917 10.4 17.875C10.2167 18.0417 9.975 18.125 9.675 18.125C9.375 18.125 9.13333 18.0417 8.95 17.875C8.76667 17.6917 8.675 17.4417 8.675 17.125V10.4C8.675 9.28333 8.475 8.475 8.075 7.975C7.675 7.475 7.04167 7.225 6.175 7.225C5.175 7.225 4.375 7.56667 3.775 8.25C3.19167 8.93333 2.9 9.85833 2.9 11.025V17.125C2.9 17.4417 2.80833 17.6917 2.625 17.875C2.44167 18.0417 2.2 18.125 1.9 18.125C1.6 18.125 1.35 18.0417 1.15 17.875C0.966667 17.6917 0.875 17.4417 0.875 17.125V6.575C0.875 6.275 0.966667 6.03333 1.15 5.85C1.35 5.66667 1.6 5.575 1.9 5.575C2.18333 5.575 2.41667 5.66667 2.6 5.85C2.78333 6.01667 2.875 6.25 2.875 6.55V7.75C3.24167 7.03333 3.75 6.48333 4.4 6.1C5.05 5.71667 5.8 5.525 6.65 5.525C8.55 5.525 9.79167 6.325 10.375 7.925C10.725 7.19167 11.2583 6.60833 11.975 6.175C12.6917 5.74167 13.5083 5.525 14.425 5.525ZM31.5891 15.175C31.7724 15.175 31.9307 15.25 32.0641 15.4C32.1974 15.55 32.2641 15.7417 32.2641 15.975C32.2641 16.3917 31.9724 16.775 31.3891 17.125C30.7891 17.475 30.1557 17.7417 29.4891 17.925C28.8224 18.0917 28.1724 18.175 27.5391 18.175C25.6557 18.175 24.1641 17.6167 23.0641 16.5C21.9807 15.3833 21.4391 13.8417 21.4391 11.875C21.4391 10.625 21.6807 9.525 22.1641 8.575C22.6474 7.60833 23.3224 6.85833 24.1891 6.325C25.0724 5.79167 26.0724 5.525 27.1891 5.525C28.7724 5.525 30.0307 6.04167 30.9641 7.075C31.8974 8.10833 32.3641 9.50833 32.3641 11.275C32.3641 11.6083 32.2974 11.85 32.1641 12C32.0307 12.15 31.8141 12.225 31.5141 12.225H23.4641C23.6141 15.0917 24.9724 16.525 27.5391 16.525C28.1891 16.525 28.7474 16.4417 29.2141 16.275C29.6807 16.0917 30.1807 15.85 30.7141 15.55C31.1474 15.3 31.4391 15.175 31.5891 15.175ZM27.2141 7.1C26.1474 7.1 25.2891 7.43333 24.6391 8.1C24.0057 8.76667 23.6307 9.70833 23.5141 10.925H30.5891C30.5557 9.69167 30.2474 8.75 29.6641 8.1C29.0807 7.43333 28.2641 7.1 27.2141 7.1ZM41.4727 5.525C44.3893 5.525 45.8477 7.13333 45.8477 10.35V17.125C45.8477 17.4417 45.756 17.6917 45.5727 17.875C45.406 18.0417 45.1643 18.125 44.8477 18.125C44.531 18.125 44.281 18.0417 44.0977 17.875C43.9143 17.6917 43.8227 17.4417 43.8227 17.125V10.475C43.8227 9.34167 43.5977 8.51667 43.1477 8C42.7143 7.48333 42.0143 7.225 41.0477 7.225C39.931 7.225 39.0393 7.56667 38.3727 8.25C37.706 8.93333 37.3727 9.85833 37.3727 11.025V17.125C37.3727 17.4417 37.281 17.6917 37.0977 17.875C36.931 18.0417 36.6893 18.125 36.3727 18.125C36.056 18.125 35.806 18.0417 35.6227 17.875C35.4393 17.6917 35.3477 17.4417 35.3477 17.125V6.575C35.3477 6.275 35.4393 6.03333 35.6227 5.85C35.806 5.66667 36.056 5.575 36.3727 5.575C36.6727 5.575 36.906 5.66667 37.0727 5.85C37.256 6.03333 37.3477 6.26667 37.3477 6.55V7.825C37.7477 7.075 38.306 6.50833 39.0227 6.125C39.7393 5.725 40.556 5.525 41.4727 5.525ZM59.3316 0.249999C59.6483 0.249999 59.8983 0.341666 60.0816 0.524998C60.265 0.708332 60.3566 0.941666 60.3566 1.225V17.125C60.3566 17.425 60.265 17.6667 60.0816 17.85C59.8983 18.0333 59.6483 18.125 59.3316 18.125C59.015 18.125 58.765 18.0333 58.5816 17.85C58.415 17.6667 58.3316 17.425 58.3316 17.125V15.775C57.965 16.5417 57.4233 17.1333 56.7066 17.55C56.0066 17.9667 55.1816 18.175 54.2316 18.175C53.165 18.175 52.2233 17.9083 51.4066 17.375C50.59 16.8417 49.9566 16.1 49.5066 15.15C49.0566 14.1833 48.8316 13.0667 48.8316 11.8C48.8316 10.55 49.0566 9.45 49.5066 8.5C49.9566 7.55 50.59 6.81667 51.4066 6.3C52.2233 5.78333 53.165 5.525 54.2316 5.525C55.1816 5.525 56.0066 5.73333 56.7066 6.15C57.4233 6.56667 57.965 7.15833 58.3316 7.925V1.225C58.3316 0.925 58.415 0.691666 58.5816 0.524998C58.765 0.341666 59.015 0.249999 59.3316 0.249999ZM54.6316 16.5C55.815 16.5 56.7233 16.1 57.3566 15.3C58.0066 14.4833 58.3316 13.3333 58.3316 11.85C58.3316 10.3667 58.0066 9.225 57.3566 8.425C56.7233 7.625 55.815 7.225 54.6316 7.225C53.4483 7.225 52.5233 7.625 51.8566 8.425C51.2066 9.225 50.8816 10.35 50.8816 11.8C50.8816 13.2833 51.2066 14.4417 51.8566 15.275C52.5233 16.0917 53.4483 16.5 54.6316 16.5ZM65.1324 18.125C64.8324 18.125 64.5824 18.0417 64.3824 17.875C64.1991 17.6917 64.1074 17.4417 64.1074 17.125V6.575C64.1074 6.25833 64.1991 6.01667 64.3824 5.85C64.5824 5.66667 64.8324 5.575 65.1324 5.575C65.4324 5.575 65.6741 5.66667 65.8574 5.85C66.0408 6.01667 66.1324 6.25833 66.1324 6.575V17.125C66.1324 17.4583 66.0408 17.7083 65.8574 17.875C65.6741 18.0417 65.4324 18.125 65.1324 18.125ZM65.1324 2.95C64.7324 2.95 64.4074 2.83333 64.1574 2.6C63.9074 2.36667 63.7824 2.05833 63.7824 1.675C63.7824 1.30833 63.9074 1.00833 64.1574 0.775C64.4074 0.541666 64.7324 0.425 65.1324 0.425C65.5324 0.425 65.8574 0.541666 66.1074 0.775C66.3574 1.00833 66.4824 1.30833 66.4824 1.675C66.4824 2.05833 66.3574 2.36667 66.1074 2.6C65.8574 2.83333 65.5324 2.95 65.1324 2.95ZM74.968 18.175C73.818 18.175 72.8013 17.9167 71.918 17.4C71.0513 16.8833 70.3763 16.15 69.893 15.2C69.4263 14.2333 69.193 13.1167 69.193 11.85C69.193 10.5833 69.4263 9.475 69.893 8.525C70.3763 7.55833 71.0513 6.81667 71.918 6.3C72.8013 5.78333 73.818 5.525 74.968 5.525C76.118 5.525 77.1346 5.78333 78.018 6.3C78.9013 6.81667 79.5763 7.55833 80.043 8.525C80.5263 9.475 80.768 10.5833 80.768 11.85C80.768 13.1167 80.5263 14.2333 80.043 15.2C79.5763 16.15 78.9013 16.8833 78.018 17.4C77.1346 17.9167 76.118 18.175 74.968 18.175ZM74.968 16.5C76.168 16.5 77.0846 16.1083 77.718 15.325C78.368 14.525 78.693 13.3667 78.693 11.85C78.693 10.3667 78.368 9.225 77.718 8.425C77.068 7.60833 76.1513 7.2 74.968 7.2C73.7846 7.2 72.868 7.60833 72.218 8.425C71.568 9.225 71.243 10.3667 71.243 11.85C71.243 13.35 71.5596 14.5 72.193 15.3C72.843 16.1 73.768 16.5 74.968 16.5Z" fill="white"/>
</svg>
